<svg xmlns="http://www.w3.org/2000/svg" enable-background="new 0 0 24 24" viewBox="0 0 24 24" id="airbnb"><path fill="#fe5b5f" d="m16.4 3.76c-.89-1.85-1.82-3.75-4.4-3.76v1.5h.01c1.822 0 2.311 1.484 3.2 3.24v.01c6.27 12.5 6.27 13.18 6.27 14.13 0 2.899-3.14 4.887-6.39 2.57-.92-.66-1.63-1.43-2.1-1.96 2-2.58 3.01-4.79 3.01-6.58 0-2.74-2.01-4.17-4-4.17v1.5c1.24 0 2.5.83 2.5 2.67 0 1.38-.86 3.24-2.5 5.41v2.31c5.578 6.234 10.98 2.608 10.98-1.75 0-2.461-3.02-7.632-6.58-15.12z"></path><path fill="#dd4f53" d="m2.52 18.88c0 1.993 1.565 3.892 4.17 3.52 1.677-.21 3.203-1.65 4.32-2.91-2-2.58-3.01-4.79-3.01-6.58 0-2.74 2.01-4.17 4-4.17v1.5c-1.24 0-2.5.83-2.5 2.67 0 1.38.86 3.24 2.5 5.41v2.31c-1.337 1.495-3.129 3.032-5.13 3.26v-.01c-.1.04-.2.07-.31.06-3.028.37-5.54-2.053-5.54-5.06 0-2.495 3.236-8.087 6.58-15.12.89-1.85 1.82-3.76 4.39-3.76h.01v1.5c-1.57 0-2.12 1-3.05 2.91-3.301 6.941-6.43 12.416-6.43 14.47z"></path></svg>