<svg xmlns="http://www.w3.org/2000/svg" enable-background="new 0 0 24 24" viewBox="0 0 24 24" id="airbnb"><path d="m18.182 24c-.206 0-.414-.013-.623-.04-.072 0-.139-.01-.202-.035l-.078-.01c-.423-.051-1.415-.17-2.849-1.202-1.101-.782-1.918-1.691-2.43-2.274-.512.583-1.329 1.492-2.433 2.276-1.431 1.03-2.423 1.149-2.846 1.2l-.073.01c-.072.031-.152.045-.23.038-1.352.166-2.654-.229-3.676-1.115-1.087-.943-1.711-2.326-1.711-3.794 0-1.271 0-1.971 6.552-15.033l.157-.325c.877-1.817 1.784-3.696 4.25-3.696 2.487 0 3.394 1.879 4.271 3.696l.159.329c6.55 13.06 6.55 13.758 6.55 15.029 0 1.469-.624 2.852-1.711 3.794-.871.755-1.944 1.152-3.077 1.152zm-.55-1.039c1.094.155 2.148-.155 2.971-.868.869-.753 1.367-1.86 1.367-3.039 0-1.044 0-1.734-6.445-14.584-.001-.002-.002-.003-.003-.005l-.162-.334c-.965-2-1.597-3.131-3.35-3.131-1.773 0-2.405 1.131-3.37 3.131l-.161.333c-6.448 12.856-6.448 13.546-6.448 14.59 0 1.179.498 2.286 1.367 3.039.823.713 1.878 1.022 2.971.868.075-.02.153-.029.233-.039.347-.042 1.16-.139 2.384-1.021 1.068-.76 1.865-1.669 2.341-2.212l.003-.003-.134-.173c-2.005-2.589-3.022-4.799-3.022-6.569 0-2.748 1.983-4 3.826-4s3.826 1.252 3.826 4c0 1.771-1.017 3.98-3.021 6.569l-.134.173.003.003c.476.543 1.272 1.452 2.338 2.21 1.227.883 2.04.981 2.387 1.022.08.012.158.021.233.04zm-5.632-13.017c-1.407 0-2.826.928-2.826 3 0 1.521.973 3.582 2.812 5.957l.014.018.014-.018c1.839-2.375 2.812-4.436 2.812-5.957 0-2.072-1.419-3-2.826-3z"></path></svg>